<?xml version="1.0" encoding="utf-8"?>
<!-- Generator: Adobe Illustrator 23.1.0, SVG Export Plug-In . SVG Version: 6.00 Build 0)  -->
<svg version="1.1" id="Слой_1" xmlns="http://www.w3.org/2000/svg" xmlns:xlink="http://www.w3.org/1999/xlink" x="0px" y="0px"
	 viewBox="0 0 700 655" style="enable-background:new 0 0 700 655;" xml:space="preserve">
<style type="text/css">
	.st0{fill:#FFFFFF;stroke:#000000;stroke-miterlimit:10;}
	.st1{fill:#FFFFFF;stroke:#000000;stroke-width:0.5;stroke-miterlimit:10;}
</style>
<image style="display:none;overflow:visible;enable-background:new    ;" width="657" height="651" xlink:href="../../E0FFEF10.png"  transform="matrix(1 0 0 1 21 2.2667)">
</image>
<path class="st0" d="M669.1,494.3c-0.3,0.2-0.5,0.4-0.8,0.6c-3.1,3.1-5.6,6.3-9.7,7.5c-1.7,0.5-3.6-0.2-4.5-1.8
	c-2.6-4.4-6.5-7.9-12.8-9.9c-1.4-0.4-2.5-1.6-2.8-3c-2.2-10.2-10.3-10.5-13,1.9c-1.8,8.4-8.8,12.5-17.8,14.5
	c-0.5,0.1-1.1,0.3-1.5,0.7c-9.7,7.1-14.6,18.7-24.6,7.6c0-0.1-0.1-0.1-0.1-0.2c-26.6-36.7-71.9-88.2-74.5-91.1
	c-0.1-0.1-0.2-0.2-0.2-0.3c-10.6-14.7-17.9-17.1-18.1-76.5c-0.2-42.5-0.6-58.1-1.8-82.3c0-0.2,0-0.4,0-0.6
	c5.6-58.5-44.8-51.4-80.5-60.3c-11.1-2.8-17.7-7.8-22-14.4c-0.1-0.2-0.2-0.4-0.3-0.6c-2.8-6.3-6.5-24.4-2.8-25.5
	c9.4-2.8,8.7-28.3,9.2-31.3c0-0.2,0-0.4,0-0.6c-0.9-7.2,11.1-14.5,13.2-26.1c4.4-23.4-0.7-62.2-12.4-77.5
	C370.4-1.6,330.2-7.1,308,23.3c-19,27.9-18.6,66.4-17.5,74.1c0,0.1,0,0.2,0,0.3c-0.4,23.6,13.5,25.2,13.7,34.7
	c0,0.2,3.7,28.3,9.9,29.3c3.4,0.5,3.7,17,0.9,23.9c-0.1,0.3-0.2,0.5-0.4,0.7c-5.3,8.2-21.8,14-24,14.7c-0.2,0-0.3,0.1-0.5,0.1
	c-51.4,10.6-75.3,0.5-81.1,61.2c0,0.1,0,0.1,0,0.2V348c0,0.1,0,0.1,0,0.2c-3.6,40.8-6.3,57.1-11.5,65.2c0,0.1-0.1,0.2-0.2,0.2
	c-2,2.3-36.7,41.8-55,65.2c-9.8,12.5-19.3,25.3-28.8,37.8c-0.8,1.1-2.2,1.7-3.6,1.6c-7.2-0.8-17.1-12.8-17.3-12.8
	c-16.1-3.5-19.5-9.1-22.5-22.8c-1.3-5.8-7.1-6.3-8.3,1.8c-1.3,8.5-2.6,6.3-3.4,6.4c-5.6,0.6-12,3.8-12,8.8c0.1,8.5-7.1,5.2-13.7-2.3
	c-0.2-0.3-0.5-0.5-0.7-0.7c-12.8-8.9-15.1-7-5.9,6.8c0,0.1,0.1,0.1,0.1,0.2c6.6,7.7,8.1,11.9,11.2,22.9c0.2,0.7,0.6,1.3,1.1,1.8
	c12.6,12,25.5,19.3,40,14.8c0.3-0.1,0.5-0.1,0.8-0.2c16-1.4,14.2,2.8,3.1,10.7c-10.8,7.8-13.4,18.8-4.7,33.7
	c0.2,0.3,0.4,0.6,0.7,0.9c32.3,31.6,73.6,55,129.3,65c0.3,0.1,0.7,0.1,1,0.1c85.1-5.6,177.7-6.4,280.4,0c0.3,0,0.6,0,0.9,0
	c45.8-7.5,89.8-26.7,130.8-65.1c0.2-0.2,0.4-0.4,0.5-0.6c7.1-9.7,13.4-17.5-0.1-29.8c-0.1,0-0.1-0.1-0.2-0.2
	c-17.1-12.3-18.5-14.8-0.5-14.7c0.3,0,0.7,0.1,1,0.1c12.9,3.3,31.6-4.8,39-15.8c0.3-0.5,0.6-1.1,0.6-1.8c1-8.9,1.3-9.4,12.1-23.2
	c0.2-0.2,0.3-0.4,0.4-0.7C678.8,492,677,489.3,669.1,494.3z"/>
<path class="st0" d="M65.1,515.4c-3,2.9-7.3,6.5-12.4,0c-2.9-3.7,1.3-7.6,5.5-12.8c1.8-2.2,5.2-1.9,6.6,0.5
	C68.3,509.5,68.2,512.4,65.1,515.4z"/>
<path class="st0" d="M265.6,451.1c-10.2,19.1-17.8,25.8-20,51.4c-1,11.7,1.6,12.3-12.9,28.2c-16.2,17.9-38.8-0.1-57.3-3.8
	c-10.4-2.1-8-6.7,1.8-13.3c25.4-17.2,44.6-39.3,63.1-60.4c11-12.5,14.7-36.5,17.3-64.9c2.1-22.6,3.4-22.2,8,0
	C269.2,406.1,280.8,422.4,265.6,451.1z"/>
<path class="st0" d="M522.7,526.3c-25.7,3.6-39.9,11.4-49.1,3.3c-16.1-14.1-18.9-10.7-20.7-31.2c-0.9-10.1-6.6-26.8-14.6-40.9
	c-12.3-21.6-13.2-37-6.9-65.2c6.1-27.3,6.8-27.9,9.3,0c2.7,29.3,7.9,50.4,13.8,57.3c23.1,27.3,44,50.3,65.8,63.6
	C530.5,519.5,534.8,524.6,522.7,526.3z"/>
<path class="st0" d="M645.6,513.6c-1.9,7.7-8.2,6.2-12.9,0c-2.3-3.1-1.1-5.5,0-9.3c2.3-7.7,2.1-5.3,8,0
	C644.3,507.6,646.8,508.5,645.6,513.6z"/>
<path class="st0" d="M64.7,503.2c3.6,6.3,3.4,9.2,0.4,12.3c-3,2.9-7.3,6.5-12.4,0c-2.9-3.7,1.3-7.6,5.5-12.8
	C59.9,500.4,63.3,500.7,64.7,503.2z"/>
<path class="st0" d="M265.6,388.3c3.6,17.8,15.3,34.1,0,62.8c-10.2,19.1-17.8,25.8-20,51.4c-1,11.7,1.6,12.3-12.9,28.2
	c-16.2,17.9-38.8-0.1-57.3-3.8c-10.4-2.1-8-6.7,1.8-13.3c25.4-17.2,44.6-39.3,63.1-60.4c11-12.5,14.7-36.5,17.3-64.9
	C259.7,365.7,261,366.1,265.6,388.3z"/>
<path class="st0" d="M522.7,526.3c-25.7,3.6-39.9,11.4-49.1,3.3c-16.1-14.1-18.9-10.7-20.7-31.2c-0.9-10.1-6.6-26.8-14.6-40.9
	c-12.3-21.6-13.2-37-6.9-65.2c6.1-27.3,6.8-27.9,9.3,0c2.7,29.3,7.9,50.4,13.8,57.3c23.1,27.3,44,50.3,65.8,63.6
	C530.5,519.5,534.8,524.6,522.7,526.3z"/>
<path class="st0" d="M645.6,513.6c-1.9,7.7-8.2,6.2-12.9,0c-2.3-3.1-1.1-5.5,0-9.3c2.3-7.7,2.1-5.3,8,0
	C644.3,507.6,646.8,508.5,645.6,513.6z"/>
<path class="st1" d="M522.7,526.3c-25.7,3.6-39.9,11.4-49.1,3.3c-16.1-14.1-18.9-10.7-20.7-31.2c-0.9-10.1-6.6-26.8-14.6-40.9
	c-12.3-21.6-13.2-37-6.9-65.2c6.1-27.3,6.8-27.9,9.3,0c2.7,29.3,7.9,50.4,13.8,57.3c23.1,27.3,44,50.3,65.8,63.6
	C530.5,519.5,534.8,524.6,522.7,526.3z"/>
<path class="st1" d="M265.6,451.1c-10.2,19.1-17.8,25.8-20,51.4c-1,11.7,1.6,12.3-12.9,28.2c-16.2,17.9-38.8-0.1-57.3-3.8
	c-10.4-2.1-8-6.7,1.8-13.3c25.4-17.2,44.6-39.3,63.1-60.4c11-12.5,14.7-36.5,17.3-64.9c2.1-22.6,3.4-22.2,8,0
	C269.2,406.1,280.8,422.4,265.6,451.1z"/>
<path class="st1" d="M65.1,515.4c-3,2.9-7.3,6.5-12.4,0c-2.9-3.7,1.3-7.6,5.5-12.8c1.8-2.2,5.2-1.9,6.6,0.5
	C68.3,509.5,68.2,512.4,65.1,515.4z"/>
<path class="st1" d="M645.6,513.6c-1.9,7.7-8.2,6.2-12.9,0c-2.3-3.1-1.1-5.5,0-9.3c2.3-7.7,2.1-5.3,8,0
	C644.3,507.6,646.8,508.5,645.6,513.6z"/>
</svg>
