<?xml version="1.0" encoding="utf-8"?>
<!-- Generator: Adobe Illustrator 23.1.0, SVG Export Plug-In . SVG Version: 6.00 Build 0)  -->
<svg version="1.1" id="Слой_1" xmlns="http://www.w3.org/2000/svg" xmlns:xlink="http://www.w3.org/1999/xlink" x="0px" y="0px"
	 viewBox="0 0 241.2 205.8" style="enable-background:new 0 0 241.2 205.8;" xml:space="preserve">
<style type="text/css">
	.st0{fill:#FFFFFF;stroke:#010101;stroke-width:0.3771;stroke-miterlimit:10;}
	.st1{fill:#FFFFFF;stroke:#010101;stroke-width:0.4617;stroke-miterlimit:10;}
	.st2{fill:#FFFFFF;stroke:#010101;stroke-width:0.3158;stroke-miterlimit:10;}
	.st3{fill:#FFFFFF;stroke:#010101;stroke-width:0.3781;stroke-miterlimit:10;}
	.st4{fill:#FFFFFF;stroke:#010101;stroke-width:0.4312;stroke-miterlimit:10;}
	.st5{fill:#FFFFFF;stroke:#010101;stroke-width:0.3705;stroke-miterlimit:10;}
	.st6{fill:#FFFFFF;stroke:#010101;stroke-width:0.3837;stroke-miterlimit:10;}
	.st7{fill:#FFFFFF;stroke:#010101;stroke-width:0.3285;stroke-miterlimit:10;}
	.st8{fill:#FFFFFF;stroke:#010101;stroke-width:0.3934;stroke-miterlimit:10;}
	.st9{fill:#FFFFFF;stroke:#010101;stroke-width:0.4486;stroke-miterlimit:10;}
	.st10{fill:#FFFFFF;stroke:#010101;stroke-width:0.3855;stroke-miterlimit:10;}
	.st11{fill:#FFFFFF;stroke:#010101;stroke-width:0.3164;stroke-miterlimit:10;}
	.st12{fill:#FFFFFF;stroke:#010101;stroke-width:0.3789;stroke-miterlimit:10;}
	.st13{fill:#FFFFFF;stroke:#010101;stroke-width:0.4321;stroke-miterlimit:10;}
	.st14{fill:#FFFFFF;stroke:#010101;stroke-width:0.3713;stroke-miterlimit:10;}
</style>
<path class="st0" d="M90.3,12.4l33.6-3.8c3.5,1,7,2.8,12.9,6.9l6.7,21.2c0.6,1.5-5.7,4.2-12.4,6.9c-3.1,1.4-16.5,1.5-29.9,1.6
	c-6.7-1.5-13.8-5.1-21.4-10.8l-0.9-10.2L90.3,12.4z"/>
<path class="st1" d="M12,89.3h16.5l0,0l6.3,19.7c2.3,1.6,4,5.1,8.2,13.7l-6.3,13.7l-14.4,2.5"/>
<path class="st1" d="M28.3,40.2c4.2,1.2,8.2,3.6,15.1,8.8l7.9,27c0.7,1.9-6.7,5.3-14.6,8.8c-3.6,1.7-19.4,1.9-35.2,2"/>
<path class="st1" d="M53,185c3.8-6.2,3.9-12.7,1.1-19.6"/>
<path class="st1" d="M6.6,86.9c4.2,8.2,6.3,16.2,6.4,24c-0.8,3-2.1,4.4-4.8,6.8"/>
<path class="st2" d="M156.8,70.3l7.6-3l13.4-1c3.6,2.6,7.4,9.6,11.6,22.3v28.2c-1.7,2.9-4.5,5.1-8.3,6.5l-23.6-5.8
	c-2.9-1.3-9.6-8.9-11.5-13l6.7-14.7l-1-10.7L156.8,70.3z"/>
<path class="st3" d="M164.5,84.2l4.9,16.9c1.8,1.4,3.1,4.4,6.4,11.7l-4.9,11.7l-11.3,2.2c-8.5-2.8-16.5-3.2-24.2-1.2l-6.5-11.5
	l3.6-15.3l19.1-14.5L164.5,84.2L164.5,84.2z"/>
<path class="st4" d="M147.2,4.8L181.9,0c3.7,1.2,7.2,3.6,13.3,8.7l6.9,26.8c0.6,1.9-5.9,5.3-12.9,8.7c-3.2,1.7-17.1,1.8-31,2
	c-6.9-1.8-14.3-6.4-22.2-13.7l-1-13L147.2,4.8z"/>
<path class="st4" d="M118.4,177.3l10.2-37.8c0.9-1.7,3.2-2.5,6.2-2.8l13.7,6.1c5.8,10.7,9.2,19.5,10.8,26.6l-1.1,19.6"/>
<path class="st4" d="M125,198.1"/>
<path class="st4" d="M40.6,105.9c-1-10.4,15-23.6,26.6-23.6c6.7,3.2,13.1,6.3,19.2,9.1c4.4,7.7,6.6,13.9,8.2,19.8
	c-5.3,7.1-11.6,12.5-19.7,15c-7.1,1-15.9,0.3-27.2-3.2C47.9,123.6,44.1,114.4,40.6,105.9z"/>
<path class="st4" d="M39.7,15.8c1.6-6.2,33.4-9.9,39-13.3l13.9,4.2l9.7,10.4l6.3,28.9l-20.1,8.8l-6.6-2.1l-7.8,4.2
	c-6.5,0.9-18.1-1.6-33.6-6.7l-5.4-9c0.8-2-1.2-6-3.4-10.3C33.7,27.2,36.5,22.1,39.7,15.8z"/>
<path class="st5" d="M192.8,188.4c-5-18.5-25.2-37.2-50.6-21.7l-13.1,23.4"/>
<path class="st5" d="M191.9,204.9"/>
<path class="st4" d="M0.1,10.3c8.8-1.5,17-1.2,24.5,0.7c2.7,1.4,3.7,2.9,5.4,5.8c0.8,4,0.6,6.4-0.7,10.2l1.7,4.3
	c-2.3,7.7-5.6,13-10,16l-0.8,13.9c-2.2,2.7-2.9,3.5-3.9,4.8L0,71"/>
<path class="st4" d="M37.3,136.7l22.2-5.8c1-1.2,1.8-2.1,2.5-3.1l-8.9-23c-3.7-4.5-5.4-6.1-11.6-10l-9.9,2.3
	c-12.1,0.6-12.1-0.4-20.9,9.5L5,109l-0.3,10.9"/>
<path class="st4" d="M50.9,165.6l5.7-2.9c5.9-0.8,16.6,1,27.6,2.9l5.9,15"/>
<path class="st4" d="M33.8,157.9l8.8,5.7c2.3,9,7.8,9.9,10.3,12.2"/>
<path class="st4" d="M155.5,23.1c8.1,0.7,15.9,4.1,17.1,6c2,1,3.5,5.2,4.9,10.2v17.5c-1.3,2.5-5.2,3.7-10,4.4l-20.8,2.7
	c-9.5-1.4-18.7-3.7-20.4-7.1c-2.5-4.6-5.4-9.7-4.4-10.4c1-3.7,2.7-7.4,5.8-11.4c2.3-8.3,6.9-6,16.1-7.2
	C148.6,25.1,153.1,23.8,155.5,23.1z"/>
<path class="st6" d="M35.1,139.6l0.9-10.5l-11.7-12"/>
<path class="st6" d="M128.6,198.9c0.9-8.4-14.7-19.1-26.1-19.1c-6.5,2.6-12.8,5.1-18.8,7.4"/>
<path class="st6" d="M129.5,126c-1.6-5-32.7-8-38.2-10.7l-13.6,3.4l-9.5,8.4L62,150.5l19.7,7.1l6.5-1.7l7.6,3.4
	c6.4,0.7,17.8-1.3,32.9-5.4l5.3-7.3c-0.7-1.6,1.2-4.9,3.3-8.3C135.4,135.3,132.7,131.2,129.5,126z"/>
<path class="st6" d="M139.2,109.1l-2.4,0.8l-6.4-0.8l-8.5,9c-2.2,4.9-2.9,7.6-3.7,12.7l-8.7,6.2c-3.6,6.6-5.4,13-5.5,19.3
	c0.7,2.4,1.8,3.5,4.2,5.5c3.6,1.4,6,1.8,9.8,1.6l3.6,2.2c7.8-0.2,13.8-1.7,17.6-4.5l13.4,2.2c3.1-1.2,4-1.5,5.5-2.1l8.8-11.7
	l-3-15.9l-13.1-7.6L139.2,109.1z"/>
<path class="st6" d="M127.8,189.9l9.6,1.9"/>
<path class="st6" d="M44.7,159.2c2.5-3.7,5.3-7.9,4.3-8.4c-1-3-2.7-6-5.6-9.2c-2.3-6.8-6.8-4.8-15.8-5.9c-4.7-2.1-9-3.2-11.4-3.7"/>
<path class="st7" d="M173.8,102.1l8.4-3l14.7-1c4,2.6,8.2,9.4,12.8,21.9v27.7c-1.9,2.8-4.9,5-9.2,6.4l-26-5.7
	c-3.1-1.3-10.6-8.8-12.6-12.8l7.4-14.4l-1.1-10.5L173.8,102.1z"/>
<path class="st8" d="M202.5,134.7l5.4,16.6c2,1.4,3.4,4.3,7,11.5l-5.4,11.5l-12.4,2.2c-9.3-2.7-18.2-3.1-26.6-1.1l-7.2-11.3l4-15
	l21-14.2h14.2V134.7z"/>
<path class="st9" d="M166.4,47.3l38.2-4.7c4,1.2,7.9,3.5,14.6,8.6l7.6,26.4c0.7,1.9-6.5,5.2-14.2,8.6c-3.5,1.7-18.8,1.8-34.1,1.9
	c-7.6-1.8-15.7-6.3-24.4-13.5L153,61.9L166.4,47.3z"/>
<path class="st9" d="M185.4,190.7c0.9-1.7,3.6-2.4,6.9-2.7l15.1,6"/>
<path class="st9" d="M88.5,157.6c-1.1-10.2,16.5-23.2,29.3-23.2c7.4,3.1,14.4,6.2,21.1,8.9c4.8,7.6,7.2,13.7,9,19.4
	c-5.8,6.9-12.8,12.3-21.7,14.8c-7.8,1-17.5,0.3-30-3.1C96.5,175,92.3,165.9,88.5,157.6z"/>
<path class="st9" d="M87.5,69c1.8-6.1,36.8-9.7,43-13l15.3,4.1l10.7,10.2l6.9,28.4l-22.1,8.6l-7.3-2l-8.6,4.1
	c-7.2,0.9-20-1.6-37-6.6L82.5,94c0.8-1.9-1.3-5.9-3.7-10.1C80.9,80.2,83.9,75.2,87.5,69z"/>
<path class="st10" d="M196.1,189.1"/>
<path class="st9" d="M63.4,43l2.7,1l7.2-1l9.5,10.9c2.5,5.9,3.3,9.2,4.2,15.4l9.8,7.5c4,8,6,15.8,6.2,23.4c-0.8,3-2,4.3-4.7,6.6
	c-4,1.8-6.7,2.2-11,1.9l-4.1,2.7c-8.8-0.2-15.5-2.1-19.9-5.5l-15.1,2.7c-3.5-1.4-4.5-1.9-6.2-2.5l-9.9-14.2l3.3-19.3l14.7-9.2
	L63.4,43z"/>
<path class="st9" d="M84.8,187.8l24.5-5.7c1.1-1.1,2-2.1,2.8-3l-9.8-22.6c-4.1-4.5-5.9-6-12.8-9.8L78.7,149
	c-13.3,0.6-13.3-0.4-23,9.3l-6.2,2.4L49,171.3"/>
<path class="st9" d="M199.7,70.4c8.9,0.7,17.5,4,18.8,5.9c2.2,1,3.9,5.1,5.4,10v17.2c-1.5,2.4-5.7,3.6-11,4.3l-22.9,2.7
	c-10.4-1.3-20.6-3.6-22.4-6.9c-2.8-4.5-6-9.5-4.8-10.3c1.1-3.7,3-7.3,6.3-11.2c2.5-8.2,7.6-5.9,17.7-7.1
	C192.2,72.4,197.1,71.1,199.7,70.4z"/>
<path class="st11" d="M220.5,132.4c-3-1.2-10.1-8.5-12-12.5l7.1-14l-1.1-10.2l5.3-8.3l8-2.9"/>
<path class="st12" d="M216.5,113.5l5.1,16.2c1.9,1.4,3.3,4.2,6.7,11.2l-5.1,11.2l-11.8,2.1c-8.9-2.6-17.3-3.1-25.4-1.1l-6.8-11
	l3.8-14.6l20.1-13.9L216.5,113.5L216.5,113.5L216.5,113.5z"/>
<path class="st13" d="M202.5,56.2c-7.2-1.8-15-6.1-23.3-13.1l-1-12.4l12.6-14.2l36.4-4.6c3.8,1.2,7.6,3.4,14,8.3"/>
<path class="st13" d="M202.9,169.5c0.9-1.6,3.4-2.3,6.6-2.6l14.3,5.9"/>
<path class="st13" d="M192.2,205.7"/>
<path class="st13" d="M86.5,134.3c-1-9.9,15.8-22.6,28-22.6c7,3.1,13.7,6,20.1,8.7c4.6,7.4,6.9,13.3,8.6,18.9
	c-5.5,6.8-12.2,11.9-20.7,14.4c-7.5,1-16.7,0.3-28.6-3.1C94.1,151.3,90.1,142.4,86.5,134.3z"/>
<path class="st13" d="M85.6,48.1c1.7-5.9,35.1-9.5,41-12.7l14.6,4l10.2,9.9L158,77l-21.1,8.4l-6.9-2l-8.2,4
	c-6.8,0.9-19-1.5-35.3-6.4l-5.6-8.6c0.8-1.9-1.2-5.8-3.6-9.8C79.2,59,82.1,54.2,85.6,48.1z"/>
<path class="st14" d="M2,118.1l35,5.5l17.2-3.8c3.1-5,3.1-10.3,0.9-15.8C49.8,86.3,28.7,68.4,2,83.3"/>
<path class="st13" d="M222.9,186.3l-14.3,2.6c-3.3-1.4-4.3-1.8-5.9-2.5l-9.4-13.8l3.2-18.8l14-8.9l12.5-20l2.5,0.9l6.8-0.9"/>
<path class="st13" d="M49.2,137.2l-0.3,10.4l-3.4,11.8l11.9,3.1c8.5,1.2,17.1,1.6,25.6,1.2l23.3-5.6c1-1.1,1.9-2.1,2.7-2.9l-9.4-22
	c-3.9-4.3-5.6-5.9-12.2-9.6l-10.3,2.2c-12.7,0.6-12.7-0.4-21.9,9L49.2,137.2z"/>
<path class="st13" d="M138.3,205.8"/>
<path class="st13" d="M132.2,191.4"/>
<path class="st13" d="M79.3,184"/>
<path class="st13" d="M220.9,89.2c-9.9-1.3-19.7-3.5-21.4-6.8c-2.7-4.4-5.7-9.3-4.6-10c1.1-3.6,2.9-7.1,6-10.9
	c2.4-8,7.3-5.7,16.9-6.9c5-2.5,9.7-3.8,12.2-4.4"/>
</svg>
