<?xml version="1.0" encoding="utf-8"?>
<!-- Generator: Adobe Illustrator 23.1.0, SVG Export Plug-In . SVG Version: 6.00 Build 0)  -->
<svg version="1.1" id="Слой_1" xmlns="http://www.w3.org/2000/svg" xmlns:xlink="http://www.w3.org/1999/xlink" x="0px" y="0px"
	 width="302.43px" height="299.15px" viewBox="0 0 302.43 299.15" enable-background="new 0 0 302.43 299.15" xml:space="preserve">
<title>cube</title>
<polyline fill="#FFFFFF" stroke="#000000" stroke-width="2" stroke-miterlimit="10" points="150.67,298.51 1.01,228.29 1.01,64.94 
	149.07,134.43 1.01,64.94 150.67,0.45 302.01,66.76 302.01,231.2 150.67,298.51 149.07,134.43 302.01,66.76 "/>
<g>
	<g>
		<g>
			<path d="M197.14,139.567c0.16-0.001,0.272,0.001,0.383,0.004c9.047,0.203,14.967,8.707,13.83,20.405
				c-0.037,0.383-0.082,0.768-0.134,1.157c-1.805,13.455-12.127,25.744-23.003,27.405c-0.803,0.123-1.587,0.183-2.349,0.186
				c-0.17,0.001-0.282-0.001-0.392-0.004c-8.974-0.201-14.871-8.569-13.856-20.121c0.025-0.285,0.054-0.572,0.088-0.861
				c0.022-0.193,0.047-0.386,0.073-0.581c1.805-13.455,12.127-25.744,23.003-27.405c0.196-0.03,0.391-0.056,0.584-0.079
				C195.968,139.604,196.56,139.569,197.14,139.567z"/>
		</g>
		<g>
			<path d="M197.624,137.678c10.27,0,16.909,9.843,15.113,23.225c-1.952,14.489-13.056,27.723-24.769,29.508
				c-0.889,0.136-1.756,0.202-2.598,0.202c-10.264,0-16.91-9.836-15.113-23.225c1.951-14.48,13.064-27.723,24.769-29.508
				C195.915,137.744,196.782,137.678,197.624,137.678z M211.352,159.976c1.138-11.699-4.782-20.203-13.83-20.405
				c-0.11-0.002-0.222-0.004-0.334-0.004c-0.629,0.002-1.22,0.038-1.824,0.108c-0.194,0.023-0.388,0.049-0.584,0.079
				c-10.876,1.661-21.198,13.95-23.003,27.405c-0.026,0.195-0.05,0.388-0.073,0.581c-0.034,0.289-0.063,0.576-0.088,0.861
				c-1.015,11.551,4.882,19.92,13.856,20.121c0.11,0.002,0.222,0.004,0.334,0.004c0.822-0.004,1.605-0.064,2.408-0.187
				c10.876-1.661,21.198-13.95,23.003-27.405C211.27,160.744,211.314,160.358,211.352,159.976"/>
		</g>
	</g>
</g>
<g>
	<g>
		<g>
			<path d="M151.348,57.376c0.153,0.003,0.315,0.005,0.467,0.015c0.162,0.003,0.324,0.006,0.477,0.008l0.189,0.01
				c0.18,0.003,0.359,0.013,0.539,0.016c15.132,0.629,26.996,6.239,26.765,12.702l-0.006,0.157l-0.015,0.157
				c-0.61,6.256-12.475,11.041-27.038,11.036c-0.351,0.001-0.702,0.002-1.062-0.004c-0.306-0.005-0.629-0.018-0.944-0.023
				l-0.189-0.01c-0.243-0.011-0.485-0.015-0.719-0.027c-15.041-0.663-26.815-6.265-26.585-12.698l0.006-0.15l0.015-0.157
				c0.623-6.363,12.868-11.191,27.74-11.031C151.105,57.379,151.232,57.374,151.348,57.376z"/>
		</g>
		<g>
			<path d="M152.581,56.49c16.684,0.548,29.838,6.752,29.383,13.861c-0.468,6.987-13.947,12.302-30.256,12.046
				c-0.351-0.006-0.701-0.019-1.052-0.025l-0.225-0.011c-16.675-0.548-29.829-6.752-29.374-13.861
				c0.468-6.987,13.947-12.302,30.247-12.046c0.351,0.006,0.701,0.019,1.052,0.025L152.581,56.49z M179.779,70.285l0.006-0.157
				c0.231-6.462-11.633-12.073-26.765-12.702c-0.18-0.003-0.36-0.013-0.539-0.016l-0.189-0.01c-0.153-0.003-0.315-0.005-0.477-0.008
				c-0.153-0.01-0.315-0.012-0.467-0.015c-0.117-0.002-0.243,0.003-0.36,0.001c-14.872-0.16-27.117,4.668-27.74,11.031l-0.015,0.157
				l-0.006,0.15c-0.23,6.433,11.545,12.035,26.585,12.698c0.234,0.011,0.476,0.015,0.719,0.027l0.189,0.01
				c0.315,0.005,0.638,0.018,0.944,0.023c0.36,0.006,0.711,0.005,1.062,0.004c14.563,0.005,26.428-4.78,27.038-11.036
				L179.779,70.285"/>
		</g>
	</g>
</g>
<g>
	<g>
		<g>
			<path d="M85.509,136.073c3.844,7.017,5.766,15.747,5.704,25.942c-0.026,4.338-0.59,8.058-1.686,11.047
				c-1.077,2.96-2.412,5.297-3.961,6.973c-1.499,1.603-3.01,3.236-4.534,4.884c-1.467,1.576-2.784,3.815-3.906,6.642
				c-1.116,2.794-1.783,6.261-1.977,10.321c-0.829,4.238-2.48,4.718-3.756,4.377c-1.394-0.409-2.609-1.711-3.684-3.874
				c-1.056-2.123-1.709-4.821-1.954-8.031c0.02-4.418,0.692-8.1,1.984-11.088c1.274-2.942,2.85-5.301,4.678-7.031
				c1.778-1.666,3.543-3.344,5.289-5.019c1.677-1.615,3.133-3.886,4.325-6.729c1.173-2.796,1.777-6.236,1.8-10.221
				c0.029-4.934-1.29-9.192-4.039-13.004c-2.794-3.867-5.966-6.35-9.419-7.37c-0.083-0.024-0.166-0.048-0.249-0.07
				c-2.621-0.702-4.869-0.242-6.691,1.364c-1.835,1.616-2.742,4.388-2.764,8.46c-0.014,2.502,0.291,5.279,0.915,8.254l0.388,1.858
				l-5.495-3.58l-0.118-0.533c-0.977-4.391-1.462-8.357-1.441-11.79c0.038-6.279,1.587-10.736,4.589-13.258
				c2.837-2.381,6.326-3.036,10.383-1.949c0.139,0.037,0.278,0.076,0.417,0.117C76.563,124.605,81.677,129.086,85.509,136.073z
				 M90.012,161.659c0.002-0.3,0.001-0.598,0-0.895c-0.06-9.207-1.843-17.086-5.318-23.432c-3.6-6.571-8.447-10.79-14.399-12.54
				c-0.131-0.039-0.262-0.075-0.393-0.11c-0.06-0.016-0.119-0.03-0.178-0.046c-3.419-0.875-6.399-0.443-8.871,1.302
				c-0.148,0.104-0.294,0.212-0.438,0.326c-0.084,0.066-0.167,0.134-0.249,0.203c-2.687,2.26-4.012,6.104-4.042,11.746
				c-0.001,0.095-0.001,0.19,0,0.285c0.01,2.963,0.422,6.388,1.236,10.188l2.748,1.782c-0.415-2.387-0.629-4.652-0.641-6.759
				c-0.001-0.14-0.001-0.28,0-0.419c0.024-4.711,1.13-8.069,3.286-9.961c0.575-0.51,1.187-0.916,1.834-1.219
				c1.52-0.712,3.233-0.851,5.121-0.419c0.132,0.03,0.265,0.062,0.399,0.098c0.092,0.025,0.184,0.05,0.276,0.078
				c3.695,1.094,7.077,3.745,10.07,7.89c2.98,4.129,4.518,8.951,4.578,14.344c0.002,0.174,0.002,0.349,0.001,0.524
				c-0.02,4.366-0.691,8.143-1.983,11.235c-1.273,3.037-2.83,5.453-4.632,7.19c-1.752,1.682-3.517,3.36-5.295,5.035
				c-1.715,1.605-3.184,3.821-4.377,6.568c-1.155,2.688-1.76,5.99-1.79,9.844c0.21,2.717,0.759,4.981,1.615,6.722
				c0.856,1.724,1.758,2.7,2.763,2.995c0.135,0.037,0.213,0.053,0.288,0.064c1.058,0.157,1.777-0.668,2.241-2.58
				c0.033-0.137,0.065-0.279,0.096-0.426c0.217-4.313,0.939-8.033,2.143-11.045c1.197-2.997,2.602-5.385,4.176-7.088
				c1.524-1.656,3.042-3.28,4.534-4.901c1.43-1.535,2.664-3.701,3.667-6.447C89.474,169.065,89.989,165.653,90.012,161.659"/>
		</g>
		<g>
			<path fill="#030F09" d="M69.902,124.681c0.13,0.035,0.261,0.072,0.393,0.11c5.952,1.75,10.798,5.969,14.399,12.54
				c3.475,6.346,5.258,14.225,5.318,23.432c0.002,0.297,0.002,0.595,0,0.895c-0.023,3.994-0.538,7.406-1.534,10.129
				c-1.002,2.746-2.237,4.912-3.667,6.447c-1.492,1.622-3.01,3.245-4.534,4.901c-1.574,1.703-2.979,4.091-4.176,7.088
				c-1.203,3.012-1.926,6.732-2.143,11.045c-0.031,0.148-0.063,0.29-0.096,0.426c-0.464,1.912-1.183,2.737-2.241,2.58
				c-0.076-0.011-0.153-0.027-0.232-0.049c-1.061-0.311-1.963-1.287-2.819-3.011c-0.856-1.741-1.405-4.005-1.615-6.722
				c0.03-3.854,0.635-7.156,1.79-9.844c1.193-2.747,2.662-4.963,4.377-6.568c1.778-1.675,3.543-3.353,5.295-5.035
				c1.803-1.737,3.359-4.154,4.632-7.19c1.292-3.092,1.963-6.869,1.983-11.235c0.001-0.175,0.001-0.35-0.001-0.524
				c-0.06-5.394-1.598-10.215-4.578-14.344c-2.993-4.145-6.375-6.797-10.07-7.89c-0.092-0.027-0.184-0.053-0.276-0.078
				c-0.134-0.036-0.267-0.068-0.399-0.098c-1.887-0.432-3.6-0.293-5.121,0.419c-0.647,0.303-1.259,0.709-1.834,1.22
				c-2.157,1.893-3.263,5.251-3.286,9.961c-0.001,0.139-0.001,0.279,0,0.419c0.012,2.107,0.226,4.372,0.641,6.759l-2.748-1.782
				c-0.814-3.8-1.226-7.225-1.236-10.188c0-0.096,0-0.191,0-0.285c0.03-5.642,1.354-9.486,4.042-11.746
				c0.083-0.069,0.166-0.137,0.249-0.203c0.144-0.114,0.29-0.222,0.438-0.326c2.472-1.745,5.452-2.176,8.871-1.302
				C69.783,124.651,69.842,124.665,69.902,124.681z"/>
		</g>
		<g>
			<path d="M74.282,216.665c1.169,2.818,1.748,5.842,1.732,8.982c-0.015,2.372-0.395,4.231-1.129,5.512
				c-0.752,1.311-1.774,1.797-3.024,1.463c-0.021-0.006-0.042-0.011-0.063-0.018c-1.901-0.561-3.411-2.288-4.478-5.105
				c-1.035-2.713-1.551-5.729-1.529-8.962c0.015-2.354,0.357-4.206,1.021-5.506c0.686-1.338,1.646-1.867,2.837-1.547
				c0.026,0.007,0.051,0.014,0.077,0.022C71.559,212.048,73.088,213.788,74.282,216.665z M74.813,225.299
				c0.001-0.085,0.001-0.169,0-0.254c-0.012-2.618-0.5-5.036-1.469-7.388c-0.975-2.343-2.165-3.69-3.627-4.125
				c-0.014-0.004-0.028-0.008-0.042-0.012c-0.026-0.007-0.051-0.013-0.076-0.019c-0.781-0.179-1.382,0.153-1.829,1.021
				c-0.501,0.989-0.77,2.455-0.775,4.371c-0.001,0.087-0.001,0.174,0,0.261c0.01,2.694,0.453,5.186,1.299,7.43
				c0.854,2.25,2.005,3.544,3.518,3.992c0.015,0.004,0.031,0.009,0.046,0.013c0.084,0.022,0.166,0.04,0.246,0.053
				c0.722,0.115,1.304-0.164,1.759-0.879c0.034-0.053,0.067-0.108,0.099-0.166C74.519,228.642,74.801,227.197,74.813,225.299"/>
		</g>
		<g>
			<path fill="#030F09" d="M69.674,213.52c0.014,0.004,0.028,0.008,0.042,0.012c1.463,0.435,2.652,1.782,3.627,4.125
				c0.97,2.352,1.457,4.77,1.469,7.388c0,0.084,0,0.169,0,0.254c-0.012,1.897-0.294,3.342-0.852,4.299
				c-0.032,0.058-0.065,0.113-0.099,0.166c-0.455,0.714-1.037,0.993-1.759,0.879c-0.08-0.013-0.162-0.03-0.246-0.053
				c-0.015-0.004-0.031-0.008-0.046-0.013c-1.513-0.449-2.665-1.742-3.518-3.992c-0.846-2.244-1.288-4.736-1.299-7.43
				c0-0.087,0-0.174,0-0.261c0.005-1.916,0.274-3.382,0.775-4.371c0.447-0.867,1.048-1.2,1.829-1.021
				C69.623,213.507,69.648,213.514,69.674,213.52z"/>
		</g>
	</g>
</g>
<g>
	<g>
		<g>
			<path d="M279.382,193.547c0.111,0,0.174,0,0.236,0.001c7.573,0.113,12.562,7.143,11.711,16.863
				c-0.035,0.399-0.079,0.801-0.134,1.208c-1.516,11.273-10.163,21.574-19.276,22.97c-0.208,0.032-0.414,0.058-0.619,0.08
				c-0.447,0.048-0.888,0.073-1.32,0.076c-0.332,0.001-0.579-0.007-0.822-0.021c-7.257-0.439-11.979-7.365-11.148-16.844
				c0.028-0.318,0.062-0.64,0.103-0.964c0.01-0.081,0.021-0.163,0.032-0.244c1.516-11.273,10.164-21.574,19.276-22.97
				c0.335-0.051,0.666-0.089,0.993-0.115C278.812,193.559,279.099,193.549,279.382,193.547z"/>
		</g>
		<g>
			<path d="M279.793,191.963c8.604-0.001,14.178,8.247,12.669,19.462c-1.633,12.148-10.944,23.235-20.755,24.737
				c-0.741,0.113-1.464,0.168-2.167,0.168c-8.609,0-14.175-8.239-12.666-19.462c1.633-12.139,10.936-23.235,20.755-24.737
				C278.369,192.018,279.092,191.963,279.793,191.963z M291.194,211.619c0.055-0.407,0.099-0.81,0.134-1.208
				c0.851-9.72-4.138-16.75-11.711-16.863c-0.062-0.001-0.124-0.001-0.187-0.001c-0.332,0.002-0.619,0.012-0.909,0.033
				c-0.437,0.034-0.767,0.072-1.103,0.123c-9.113,1.396-17.76,11.697-19.276,22.97c-0.011,0.081-0.022,0.163-0.032,0.244
				c-0.041,0.324-0.075,0.646-0.103,0.964c-0.831,9.479,3.891,16.404,11.148,16.844c0.244,0.015,0.491,0.022,0.74,0.022
				c0.514-0.004,0.954-0.029,1.402-0.077c0.205-0.022,0.411-0.048,0.619-0.08C281.031,233.194,289.678,222.892,291.194,211.619"/>
		</g>
	</g>
</g>
</svg>
