<?xml version="1.0" encoding="utf-8"?>
<!-- Generator: Adobe Illustrator 23.1.0, SVG Export Plug-In . SVG Version: 6.00 Build 0)  -->
<svg version="1.1" id="Слой_1" xmlns="http://www.w3.org/2000/svg" xmlns:xlink="http://www.w3.org/1999/xlink" x="0px" y="0px"
	 width="446px" height="332px" viewBox="0 0 446 332" enable-background="new 0 0 446 332" xml:space="preserve">
<path fill="#FFFFFF" stroke="#000000" stroke-width="0.75" stroke-miterlimit="10" d="M188.2,270.028c12.7-0.3,20.1-3,23.6-7.6
	c5.3-4.4,7.5-10.7,7.6-18.4h-2.7l1.1-5.6c-13.3-1.7-22.9,1.2-31.3,5.6c-10.2,7-18.9,20.4-17.6,27.5
	C176.8,270.028,184.2,269.728,188.2,270.028z M20.7,255.028c3.5,3.6,7.8,5.1,12.7,5c4.9,0.8,9.1,0,12.7-2.4l-1.8-1.6
	c0.1-3.8-1.1-5.9-3.3-6.9c0-7.1-27.1-4.1-28.9-2.2L20.7,255.028z M66.2,281.528c7.9-0.8,15.1-3.6,19.3-13.6c0.7-1.4,2.5-6.5,1.1-8.6
	C70.7,255.528,64.3,263.528,66.2,281.528z M151.1,243.328h-2.4v-3.8c-21.7,1.9-30.7,13.4-30.7,32
	C141.3,264.728,150.2,255.528,151.1,243.328z M95.3,216.028c-5.3-2.3-19.1,2-32,2.9c14.9,20.7,36.7,22.2,45.8,15.8l-1.3-2.9l1.3-2.7
	C106.1,222.728,101.6,218.228,95.3,216.028z M79.3,192.928c18.4,12.5,33.4,14.2,43.8,1.3l-2.9-1.3l1.3-2.4
	c-5.5-4.7-11.6-7.5-18.4-7.1C96.6,183.728,88.3,187.728,79.3,192.928z M102.9,166.428c6-7.2,4.2-10.5,1.6-13.6
	c-0.9-1.7-5.5-4.9-14.2-8C88.5,155.928,90,164.728,102.9,166.428z M159.6,178.428c4.4,27.5,20.4,36.2,42.7,34.9v-6.7l2.7,0.4
	c-0.5-11.5-4.9-20.3-17.1-23.8C180.4,181.528,166.4,181.828,159.6,178.428z M227.8,183.328c13.6,1.4,22.2-1.2,34-9.1l-1.6-2.2
	l2.9-2.2c-12-14.1-39.1-21.6-74.9,0C208.9,174.228,214,181.128,227.8,183.328z M212,141.328l-2.7-2.9l1.1-2.9
	c-3.4-5.3-10.9-17.4-22.2-17.1c-9.1-0.7-20,0.1-32.4,2.2C163.8,139.828,187.7,150.028,212,141.328z M235.1,136.228
	c8.9,8.6,18.3,11.1,28,9.8v-3.3c6,1.8,6.7,1.2,14.4,0.9c-9.3-32.3-35.7-34.1-63.3-33.6C220.6,119.728,227,129.228,235.1,136.228z
	 M203.6,74.028l-2.9,0.2v-1.6c-14.4-4.2-18.4,0.9-24.9,13.3C191.3,88.028,201.1,84.528,203.6,74.028z M269.3,78.928l-3.6-1.1v-2.2
	c-22.2-7.6-23.3,0.5-37.1,18C254.6,98.328,264.4,90.028,269.3,78.928z M327.8,112.628c-0.9-2.7-0.9-2.7-3.6-4.4l1.6-2.7
	c-16.4-16.4-24.9-16.7-56.4-1.1C280.2,118.228,310.2,125.328,327.8,112.628z M263.1,59.128v-3.8h2.7c3.6-25.3-18.2-25.8-40.1-31.3
	C228.7,51.828,246.6,60.728,263.1,59.128z M316.4,8.028c-10.2,13.5-11.1,24-1.6,31.1h2.2l1.6,2.5
	C331.1,27.928,328,17.228,316.4,8.028z M372.2,113.328c17-10.3,19.4-19.3,16-25.3c-4.7-8.4-9.1-12.9-13.1-20.9
	C350,81.128,360.1,113.328,372.2,113.328z M432,100.828c-30,9.1-42.4,31.1-30,42.7c2.2-0.5,3.5-1.7,5.6-2.7l0.4,3.8
	C446.4,131.828,429.6,124.428,432,100.828z M279.8,258.428c-36.7-7.1-58.2,26.9-56.9,35.4C232,287.328,280.4,298.928,279.8,258.428z
	 M350.7,290.928l-11.3-1.1c-1.4-1.2,0.6-2.2,3.3-3.1c-36-8.1-33-3.1-62.9,32.9C322,328.928,353.6,306.228,350.7,290.928z
	 M247.1,190.928c7.7,25.3,5.7,32.5,37.1,41.8c-1.5-1.4-1.2-2.3,0.9-2.9l5.6,2C294.1,209.928,279.1,196.528,247.1,190.928z
	 M311.6,190.928c5.5,28.8,7.8,52.7,40.9,62.7c-13.1-19.1-0.7-20.9-1.6-8.9c4.4,8.1,10.5,10.7,17.4,10.1
	C377.3,216.028,348.7,200.728,311.6,190.928z M357.1,183.328c-11-4.5-15.4-6.7-2.9-3.3c8.2,0.4,14.2-0.9,15.7-3.3
	c-18.7-33.8-67.2-25.6-88.4-17.1C307.8,176.428,321.6,195.928,357.1,183.328z M127.8,176.028c2.7,4.6,1.4,6-2.5,5.6l-17.1-9.6
	l-1.3,2.7c13.8,6.6,25.3,17.5,33.7,34.4l8.1-2.9c-4-6.6-19-21.9-14.1-21.1c19.1-7.1,9.2-17.3-2.1-27.6
	C127.2,161.528,124.2,172.028,127.8,176.028z M50.9,259.328c-1.6,0.8-1.4,1.6,0,2.4c142-45.3,163.3-43.3,316.2,28.2l6.4-12.4
	C236.4,190.928,147.3,224.628,50.9,259.328z M393.6,183.328l9.3-16.9c-35.1-70.2-90-108.4-192.7-101.8c-1.6,1-2.1,1.8-1.6,2.4
	C327.8,61.528,354.4,129.128,393.6,183.328z M304.4,59.328h10c-1.9-14.1-9.3-26-20.7-36.4c-1,0-1.5,0.5-1.1,1.9
	C299.6,31.628,304.7,41.228,304.4,59.328z"/>
</svg>
