<?xml version="1.0" encoding="utf-8"?>
<!-- Generator: Adobe Illustrator 23.1.0, SVG Export Plug-In . SVG Version: 6.00 Build 0)  -->
<svg version="1.1" id="Слой_1" xmlns="http://www.w3.org/2000/svg" xmlns:xlink="http://www.w3.org/1999/xlink" x="0px" y="0px"
	 viewBox="0 0 344 348.6" style="enable-background:new 0 0 344 348.6;" xml:space="preserve">
<style type="text/css">
	.st0{fill:none;stroke:#000000;stroke-width:0.75;stroke-miterlimit:10;}
</style>
<path class="st0" d="M64.6,68.9c-0.6,11.7-27.8,23.4-6.7,44.8c1.4-0.9,2.6-1.6,3.6-2.2c0.3,2,1.1,4,3.1,6
	C80,104.3,83.7,88.9,64.6,68.9z M125.1,60.3c-4.9,3.1-25.3,10.2-22.2,25.1h3.1l-0.9,3.9C121.2,87.9,127.9,78.2,125.1,60.3z
	 M165.1,97.9c-28-2-44.1,6.2-48.4,24.7c9.1-1.1,5.3-0.9,9.1-1.1c0.2,0.7-0.5,2.8-1.1,3.2C152.4,134.6,155.3,109.2,165.1,97.9z
	 M96.4,144.6c-14.8-3.2-26.4-2-28.4,5.8C78.2,156.4,88.9,155.7,96.4,144.6z M14.6,108.6c-15.8,25.1-6.7,38.9,10.4,49
	c0.8-2.4,1.8-4.5,3.6-5.3l1.3,1.5C51.5,131.5,36.9,126.9,14.6,108.6z M72.9,182.3c-18.2-4-33.4-4.5-37.6,7.3
	C45,197.9,57.5,195.5,72.9,182.3z M64.7,237.4c-21.8,15.1-47.8,26.9-23.3,53.3h2.4l1.6,3.6C73,285.2,80.3,262.3,64.7,237.4z
	 M110,168.1c-18.7,18.2-44.2,33.8-26.7,59.8c3.1-9.2,4.9-14.4,5.1-3.3c-1.7,3.3-0.9,6.8,1,10.4C120.8,225.4,128.1,195.9,110,168.1z
	 M130.4,245.2l3.1,0.9c27.1-2.4,26.7-21,22.7-42c-24.1,7.4-38.5,19.4-30.9,42C127.1,243.8,128.8,243.4,130.4,245.2z M162.7,151.5
	c-21,21.3-17.6,33.5-3.1,46.2c0.5-2.8,1.3-4.5,3.1-2.9l3.1,1.1C189.3,174.6,175.6,171.4,162.7,151.5z M217.3,155l0.7,3.9
	c20.7-5.7,23.7-20.1,18.7-29.9c-11.3,7.7-22.8,10.2-21.1,26H217.3z M208.2,176.6c1.6,1.5,2.2,2.9,0.7,4l-1.8,0.9
	c13.1,8.3,25.8,6.7,38-6.9C232.6,169.8,220.3,170.3,208.2,176.6z M179.8,226.1c-3.3,1.8-3.3,4.2-1.2,6.4c22.3-3.1,40-10.6,40.3-34.9
	c-23.4,5.3-41.6,12.7-42.4,27.4L179.8,226.1z M281.3,209.7c-19.9-4.2-32.6-1.2-39.8,15.4c0,0,2.4,0,3.6,0s0,2.6,0,2.6
	C276.9,235,267.6,219.9,281.3,209.7z M215.4,253.2c8.8,19.6,46,16.2,51.7,8.7c-17-11.4-25.9-19.6-46.4-12.2v2.9
	C219.4,254.2,217.4,253.9,215.4,253.2z M187.8,288.1c-11.3-18.2-39.9-22.2-52-12l3.3,1.8c1.5,1.1-0.4,3.1-3.3,4.2
	C152,304.1,167.8,294.3,187.8,288.1z M69.6,315.7c1.5,1.3-0.6,2.5-5.3,3.6c23.3,22.4,66.2,5.3,72.7-7.1c-24.2-6.9-44-17.8-68.8,1.6
	L69.6,315.7z M301.6,246.9c7.6,10.9,20.9,8.1,30.4,4.3C318.4,243.7,311.3,238.8,301.6,246.9z M116.6,97.6c0.6-1.4,0.1-2.2-1.7-2.4
	C77,107.4,42.2,150.1,9.7,190.1l7.8,9.7C55.6,153,94.2,104.7,116.6,97.6z M166.2,209.4h7.6c19.9-24,34.8-37.3,47.1-45.1
	c2.1-2.7,2.1-3.6,0-2.7C203.9,171.5,186.9,181.7,166.2,209.4z M329.8,240.8c2.5-0.4,2.9-1,2.2-1.8c-124.9-16-224,2-302.4,76.2
	l-1.8,21.6C104.4,274.2,196.7,231.6,329.8,240.8z M34.8,44.9c-4.6-0.3-8.7,2-12.4,5.9l0.9,2l-2,1.1c7,10.7,17.1,9.3,29.5-1.1
	C44.8,48.5,39.2,45.2,34.8,44.9z M43.4,12.8c-5.9,2.6-8.9,5.2-9.6,6.7c-1.7,2.6-3,5.3,1.1,11.3C43.6,29.4,44.6,22.1,43.4,12.8z
	 M15,23.4c-7.6,8.6-14.3,17.1-1.4,23c3.3-0.7-6.8,12.1-9.5,17.6l5.4,2.4C15.2,52.3,23,43.2,32.2,37.7l-0.9-2.2l-11.5,8
	c-2.6,0.3-3.5-0.8-1.7-4.7C20.6,35.4,18.6,26.7,15,23.4z"/>
</svg>
