<?xml version="1.0" encoding="utf-8"?>
<!-- Generator: Adobe Illustrator 23.1.0, SVG Export Plug-In . SVG Version: 6.00 Build 0)  -->
<svg version="1.1" id="Слой_1" xmlns="http://www.w3.org/2000/svg" xmlns:xlink="http://www.w3.org/1999/xlink" x="0px" y="0px"
	 width="880px" height="348.6px" viewBox="0 0 880 348.6" enable-background="new 0 0 880 348.6" xml:space="preserve">
<path fill="#FFFFFF" stroke="#000000" stroke-width="0.75" stroke-miterlimit="10" d="M188.2,296.8c12.7-0.3,20.1-3,23.6-7.6
	c5.3-4.4,7.5-10.7,7.6-18.4h-2.7l1.1-5.6c-13.3-1.7-22.9,1.2-31.3,5.6c-10.2,7-18.9,20.4-17.6,27.5
	C176.8,296.8,184.2,296.5,188.2,296.8z M20.7,281.8c3.5,3.6,7.8,5.1,12.7,5c4.9,0.8,9.1,0,12.7-2.4l-1.8-1.6
	c0.1-3.8-1.1-5.9-3.3-6.9c0-7.1-27.1-4.1-28.9-2.2L20.7,281.8z M66.2,308.3c7.9-0.8,15.1-3.6,19.3-13.6c0.7-1.4,2.5-6.5,1.1-8.6
	C70.7,282.3,64.3,290.3,66.2,308.3z M151.1,270.1h-2.4v-3.8c-21.7,1.9-30.7,13.4-30.7,32C141.3,291.5,150.2,282.3,151.1,270.1z
	 M95.3,242.8c-5.3-2.3-19.1,2-32,2.9c14.9,20.7,36.7,22.2,45.8,15.8l-1.3-2.9l1.3-2.7C106.1,249.5,101.6,245,95.3,242.8z
	 M79.3,219.7c18.4,12.5,33.4,14.2,43.8,1.3l-2.9-1.3l1.3-2.4c-5.5-4.7-11.6-7.5-18.4-7.1C96.6,210.5,88.3,214.5,79.3,219.7z
	 M102.9,193.2c6-7.2,4.2-10.5,1.6-13.6c-0.9-1.7-5.5-4.9-14.2-8C88.5,182.7,90,191.5,102.9,193.2z M159.6,205.2
	c4.4,27.5,20.4,36.2,42.7,34.9v-6.7l2.7,0.4c-0.5-11.5-4.9-20.3-17.1-23.8C180.4,208.3,166.4,208.6,159.6,205.2z M227.8,210.1
	c13.6,1.4,22.2-1.2,34-9.1l-1.6-2.2l2.9-2.2c-12-14.1-39.1-21.6-74.9,0C208.9,201,214,207.9,227.8,210.1z M212,168.1l-2.7-2.9
	l1.1-2.9c-3.4-5.3-10.9-17.4-22.2-17.1c-9.1-0.7-20,0.1-32.4,2.2C163.8,166.6,187.7,176.8,212,168.1z M235.1,163
	c8.9,8.6,18.3,11.1,28,9.8v-3.3c6,1.8,6.7,1.2,14.4,0.9c-9.3-32.3-35.7-34.1-63.3-33.6C220.6,146.5,227,156,235.1,163z M203.6,100.8
	l-2.9,0.2v-1.6c-14.4-4.2-18.4,0.9-24.9,13.3C191.3,114.8,201.1,111.3,203.6,100.8z M269.3,105.7l-3.6-1.1v-2.2
	c-22.2-7.6-23.3,0.5-37.1,18C254.6,125.1,264.4,116.8,269.3,105.7z M327.8,139.4c-0.9-2.7-0.9-2.7-3.6-4.4l1.6-2.7
	c-16.4-16.4-24.9-16.7-56.4-1.1C280.2,145,310.2,152.1,327.8,139.4z M263.1,85.9v-3.8h2.7c3.6-25.3-18.2-25.8-40.1-31.3
	C228.7,78.6,246.6,87.5,263.1,85.9z M316.4,34.8c-10.2,13.5-11.1,24-1.6,31.1h2.2l1.6,2.5C331.1,54.7,328,44,316.4,34.8z
	 M354.4,32.6c5.1,14,3.6,45.3,34.4,49.1l2-2.7c2.8,0.9,4.7,2.7,8.2,2.7C408.9,63.7,393.6,40.9,354.4,32.6z M372.2,140.1
	c17-10.3,19.4-19.3,16-25.3c-4.7-8.4-9.1-12.9-13.1-20.9C350,107.9,360.1,140.1,372.2,140.1z M412.2,23.2
	c2.4,12.9-6.4,37.3,1.1,45.2c4.7,8.2,11.5,14.4,19.6,19.5l4-1.8c2.2,2.3,4.8,3.2,7.6,3.4C458.9,66.2,454.5,43.8,412.2,23.2z
	 M480.7,67.4c-18,22-42.5,33.4-27.8,63.6c0.3-4.1,1.4-7.5,4.7-9.3c1.8,2.6,1.7,5.7,0.2,9.3c-0.3,3.5,0,6.7,2.7,9.1
	C492.9,129.4,499.6,95.4,480.7,67.4z M466.2,0c-4.2,11-16.9,21,2.4,33.4C481.8,24.3,479.6,11.5,466.2,0z M496.7,64.6
	c-1,1.5-0.2,5,1.8,6.9c18.9-10.3,24.3-25.2,9.7-46.9c-11.6,14.2-27.3,20.8-14.9,41.6L496.7,64.6z M558.4,48
	c-0.6,11.7-27.8,23.4-6.7,44.8c1.4-0.9,2.6-1.6,3.6-2.2c0.3,2,1.1,4,3.1,6C573.8,83.4,577.5,68,558.4,48z M618.9,39.4
	c-4.9,3.1-25.3,10.2-22.2,25.1h3.1l-0.9,3.9C615,67,621.7,57.3,618.9,39.4z M658.9,77c-28-2-44.1,6.2-48.4,24.7
	c9.1-1.1,5.3-0.9,9.1-1.1c0.2,0.7-0.5,2.8-1.1,3.2C646.2,113.7,649.1,88.3,658.9,77z M590.2,123.7c-14.8-3.2-26.4-2-28.4,5.8
	C572,135.5,582.7,134.8,590.2,123.7z M508.4,87.7c-15.8,25.1-6.7,38.9,10.4,49c0.8-2.4,1.8-4.5,3.6-5.3l1.3,1.5
	C545.3,110.6,530.7,106,508.4,87.7z M432,127.6c-30,9.1-42.4,31.1-30,42.7c2.2-0.5,3.5-1.7,5.6-2.7l0.4,3.8
	C446.4,158.6,429.6,151.2,432,127.6z M603.1,119.8c-8.3,13.2-38.9,30.8-4.2,63.4l5.3-4.2l3.7,2.4C644.9,154.9,613.4,139,603.1,119.8
	z M566.7,161.4c-18.2-4-33.4-4.5-37.6,7.3C538.8,177,551.3,174.6,566.7,161.4z M549.3,241.9c-0.1,5.9,2.5,10.2,8.2,12.9l8-8.7
	c24.8-32.9,5.6-50.9-12-69.6c-12,22.9-33.8,44.2-8.9,70.9C546.5,235.8,551.6,227.7,549.3,241.9 M600.7,237.4
	c-21.8,15.1-47.8,26.9-23.3,53.3h2.4l1.6,3.6C609,285.2,616.3,262.3,600.7,237.4z M646,168.1c-18.7,18.2-44.2,33.8-26.7,59.8
	c3.1-9.2,4.9-14.4,5.1-3.3c-1.7,3.3-0.9,6.8,1,10.4C656.8,225.4,664.1,195.9,646,168.1z M666.4,245.2l3.1,0.9
	c27.1-2.4,26.7-21,22.7-42c-24.1,7.4-38.5,19.4-30.9,42C663.1,243.8,664.8,243.4,666.4,245.2z M698.7,151.5
	c-21,21.3-17.6,33.5-3.1,46.2c0.5-2.8,1.3-4.5,3.1-2.9l3.1,1.1C725.3,174.6,711.6,171.4,698.7,151.5z M753.3,155l0.7,3.9
	c20.7-5.7,23.7-20.1,18.7-29.9c-11.3,7.7-22.8,10.2-21.1,26H753.3z M744.2,176.6c1.6,1.5,2.2,2.9,0.7,4l-1.8,0.9
	c13.1,8.3,25.8,6.7,38-6.9C768.6,169.8,756.3,170.3,744.2,176.6z M715.8,226.1c-3.3,1.8-3.3,4.2-1.2,6.4c22.3-3.1,40-10.6,40.3-34.9
	c-23.4,5.3-41.6,12.7-42.4,27.4L715.8,226.1z M817.3,209.7c-19.9-4.2-32.6-1.2-39.8,15.4c0,0,2.4,0,3.6,0s0,2.6,0,2.6
	C812.9,235,803.6,219.9,817.3,209.7z M751.4,253.2c8.8,19.6,46,16.2,51.7,8.7c-17-11.4-25.9-19.6-46.4-12.2v2.9
	C755.4,254.2,753.4,253.9,751.4,253.2z M723.8,288.1c-11.3-18.2-39.9-22.2-52-12l3.3,1.8c1.5,1.1-0.4,3.1-3.3,4.2
	C688,304.1,703.8,294.3,723.8,288.1z M605.6,315.7c1.5,1.3-0.6,2.5-5.3,3.6c23.3,22.4,66.2,5.3,72.7-7.1c-24.2-6.9-44-17.8-68.8,1.6
	L605.6,315.7z M837.6,246.9c7.6,10.9,20.9,8.1,30.4,4.3C854.4,243.7,847.3,238.8,837.6,246.9z M279.8,285.2
	c-36.7-7.1-58.2,26.9-56.9,35.4C232,314.1,280.4,325.7,279.8,285.2z M350.7,317.7l-11.3-1.1c-1.4-1.2,0.6-2.2,3.3-3.1
	c-36-8.1-33-3.1-62.9,32.9C322,355.7,353.6,333,350.7,317.7z M247.1,217.7c7.7,25.3,5.7,32.5,37.1,41.8c-1.5-1.4-1.2-2.3,0.9-2.9
	l5.6,2C294.1,236.7,279.1,223.3,247.1,217.7z M311.6,217.7c5.5,28.8,7.8,52.7,40.9,62.7c-13.1-19.1-0.7-20.9-1.6-8.9
	c4.4,8.1,10.5,10.7,17.4,10.1C377.3,242.8,348.7,227.5,311.6,217.7z M357.1,210.1c-11-4.5-15.4-6.7-2.9-3.3
	c8.2,0.4,14.2-0.9,15.7-3.3c-18.7-33.8-67.2-25.6-88.4-17.1C307.8,203.2,321.6,222.7,357.1,210.1z M127.8,202.8
	c2.7,4.6,1.4,6-2.5,5.6l-17.1-9.6l-1.3,2.7c13.8,6.6,25.3,17.5,33.7,34.4l8.1-2.9c-4-6.6-19-21.9-14.1-21.1
	c19.1-7.1,9.2-17.3-2.1-27.6C127.2,188.3,124.2,198.8,127.8,202.8z M50.9,286.1c-1.6,0.8-1.4,1.6,0,2.4
	c142-45.3,163.3-43.3,316.2,28.2l6.4-12.4C236.4,217.7,147.3,251.4,50.9,286.1z M393.6,210.1l9.3-16.9
	c-35.1-70.2-90-108.4-192.7-101.8c-1.6,1-2.1,1.8-1.6,2.4C327.8,88.3,354.4,155.9,393.6,210.1z M304.4,86.1h10
	c-1.9-14.1-9.3-26-20.7-36.4c-1,0-1.5,0.5-1.1,1.9C299.6,58.4,304.7,68,304.4,86.1z M610.4,76.7c0.6-1.4,0.1-2.2-1.7-2.4
	c-37.9,12.2-72.7,54.9-105.2,94.9l7.8,9.7C549.4,132.1,588,83.8,610.4,76.7z M702.2,209.4h7.6c19.9-24,34.8-37.3,47.1-45.1
	c2.1-2.7,2.1-3.6,0-2.7C739.9,171.5,722.9,181.7,702.2,209.4z M865.8,240.8c2.5-0.4,2.9-1,2.2-1.8c-124.9-16-224,2-302.4,76.2
	l-1.8,21.6C640.4,274.2,732.7,231.6,865.8,240.8z"/>
</svg>
